<svg xmlns="http://www.w3.org/2000/svg" viewBox="0 0 1440 320"><path fill="#273036" fill-opacity="1" d="M0,192L14.1,165.3C28.2,139,56,85,85,90.7C112.9,96,141,160,169,176C197.6,192,226,160,254,128C282.4,96,311,64,339,64C367.1,64,395,96,424,117.3C451.8,139,480,149,508,144C536.5,139,565,117,593,117.3C621.2,117,649,139,678,138.7C705.9,139,734,117,762,96C790.6,75,819,53,847,64C875.3,75,904,117,932,128C960,139,988,117,1016,90.7C1044.7,64,1073,32,1101,37.3C1129.4,43,1158,85,1186,117.3C1214.1,149,1242,171,1271,181.3C1298.8,192,1327,192,1355,181.3C1383.5,171,1412,149,1426,138.7L1440,128L1440,320L1425.9,320C1411.8,320,1384,320,1355,320C1327.1,320,1299,320,1271,320C1242.4,320,1214,320,1186,320C1157.6,320,1129,320,1101,320C1072.9,320,1045,320,1016,320C988.2,320,960,320,932,320C903.5,320,875,320,847,320C818.8,320,791,320,762,320C734.1,320,706,320,678,320C649.4,320,621,320,593,320C564.7,320,536,320,508,320C480,320,452,320,424,320C395.3,320,367,320,339,320C310.6,320,282,320,254,320C225.9,320,198,320,169,320C141.2,320,113,320,85,320C56.5,320,28,320,14,320L0,320Z"></path></svg>