<svg xmlns="http://www.w3.org/2000/svg" viewBox="0 0 1440 320"><path fill="#dd3f31" fill-opacity="1" d="M0,288L14.1,245.3C28.2,203,56,117,85,117.3C112.9,117,141,203,169,218.7C197.6,235,226,181,254,160C282.4,139,311,149,339,181.3C367.1,213,395,267,424,277.3C451.8,288,480,256,508,229.3C536.5,203,565,181,593,165.3C621.2,149,649,139,678,144C705.9,149,734,171,762,149.3C790.6,128,819,64,847,74.7C875.3,85,904,171,932,224C960,277,988,299,1016,266.7C1044.7,235,1073,149,1101,101.3C1129.4,53,1158,43,1186,53.3C1214.1,64,1242,96,1271,90.7C1298.8,85,1327,43,1355,21.3C1383.5,0,1412,0,1426,0L1440,0L1440,320L1425.9,320C1411.8,320,1384,320,1355,320C1327.1,320,1299,320,1271,320C1242.4,320,1214,320,1186,320C1157.6,320,1129,320,1101,320C1072.9,320,1045,320,1016,320C988.2,320,960,320,932,320C903.5,320,875,320,847,320C818.8,320,791,320,762,320C734.1,320,706,320,678,320C649.4,320,621,320,593,320C564.7,320,536,320,508,320C480,320,452,320,424,320C395.3,320,367,320,339,320C310.6,320,282,320,254,320C225.9,320,198,320,169,320C141.2,320,113,320,85,320C56.5,320,28,320,14,320L0,320Z"></path></svg>