<svg xmlns="http://www.w3.org/2000/svg" viewBox="0 0 1440 320"><path fill="#c5174d" fill-opacity="1" d="M0,0L18.5,10.7C36.9,21,74,43,111,85.3C147.7,128,185,192,222,181.3C258.5,171,295,85,332,48C369.2,11,406,21,443,48C480,75,517,117,554,117.3C590.8,117,628,75,665,69.3C701.5,64,738,96,775,117.3C812.3,139,849,149,886,170.7C923.1,192,960,224,997,202.7C1033.8,181,1071,107,1108,74.7C1144.6,43,1182,53,1218,48C1255.4,43,1292,21,1329,64C1366.2,107,1403,213,1422,266.7L1440,320L1440,320L1421.5,320C1403.1,320,1366,320,1329,320C1292.3,320,1255,320,1218,320C1181.5,320,1145,320,1108,320C1070.8,320,1034,320,997,320C960,320,923,320,886,320C849.2,320,812,320,775,320C738.5,320,702,320,665,320C627.7,320,591,320,554,320C516.9,320,480,320,443,320C406.2,320,369,320,332,320C295.4,320,258,320,222,320C184.6,320,148,320,111,320C73.8,320,37,320,18,320L0,320Z"></path></svg>