<svg xmlns="http://www.w3.org/2000/svg" viewBox="0 0 1440 320"><path fill="#e7008a" fill-opacity="1" d="M0,256L21.8,234.7C43.6,213,87,171,131,176C174.5,181,218,235,262,256C305.5,277,349,267,393,234.7C436.4,203,480,149,524,128C567.3,107,611,117,655,122.7C698.2,128,742,128,785,117.3C829.1,107,873,85,916,85.3C960,85,1004,107,1047,128C1090.9,149,1135,171,1178,154.7C1221.8,139,1265,85,1309,74.7C1352.7,64,1396,96,1418,112L1440,128L1440,320L1418.2,320C1396.4,320,1353,320,1309,320C1265.5,320,1222,320,1178,320C1134.5,320,1091,320,1047,320C1003.6,320,960,320,916,320C872.7,320,829,320,785,320C741.8,320,698,320,655,320C610.9,320,567,320,524,320C480,320,436,320,393,320C349.1,320,305,320,262,320C218.2,320,175,320,131,320C87.3,320,44,320,22,320L0,320Z"></path></svg>